<svg xmlns="http://www.w3.org/2000/svg" viewBox="0 0 600 600">
  <defs>
    <clipPath id="rounded"><rect width="600" height="600" rx="72" ry="72"/></clipPath>
  </defs>
  <g clip-path="url(#rounded)">
    <g transform="translate(0,600) scale(.1,-.1)" fill="#E63B2E">
      <path d="M0 4303l0-1698 1432 1432 1433 1432 59 17c148 42 297-42 337-189 14-52 6-133-16-178-9-19-635-653-1390-1409-1262-1264-1374-1379-1389-1424-43-132 11-269 129-326 62-30 160-29 224 2 35 17 371 347 1409 1385 749 750 1376 1370 1392 1378 131 68 295 15 363-115 25-49 28-63 24-130-2-45-11-89-21-110-10-19-636-654-1391-1410l-1374-1375-16-59c-59-205 116-380 321-321l59 17 1380 1378c1318 1316 1382 1378 1433 1395 158 51 323-41 350-194 11-62 2-132-23-181-9-17-630-645-1381-1396-1009-1009-1370-1376-1384-1407-23-51-27-162-6-211 52-124 196-185 332-140 45 15 160 127 1424 1389 756 755 1390 1381 1409 1390 44 22 126 30 176 16 149-40 233-188 190-337l-16-59-1432-1433-1432-1432 1698 0 1697 0 0 3000 0 3000-3000 0-3000 0 0-1697z"/>
    </g>
  </g>
</svg>
